<svg version="1.1" id="Layer_1" xmlns="http://www.w3.org/2000/svg" xmlns:xlink="http://www.w3.org/1999/xlink" x="0px" y="0px"
	 width="100%" viewBox="0 0 512 512" enable-background="new 0 0 512 512" xml:space="preserve">
<path fill="#000000" opacity="1.000000" stroke="none" 
	d="
M0.999999,438.000000 
	C1.000000,292.392883 1.000000,146.785767 1.000000,1.089329 
	C171.666641,1.089329 342.333313,1.089329 513.000000,1.089329 
	C513.000000,38.429890 513.000000,75.747963 512.753784,113.865356 
	C498.955292,105.435753 485.393158,96.221252 471.859131,86.965591 
	C469.196564,85.144707 466.366058,83.445442 464.092407,81.203842 
	C458.156067,75.351326 453.036499,68.545387 446.595428,63.355534 
	C432.668854,52.134354 416.221558,46.919579 398.444427,46.037888 
	C387.551025,45.497608 376.895782,47.408527 366.738373,51.154110 
	C353.517090,56.029530 341.464630,54.142052 329.352356,47.438801 
	C326.318604,45.759823 321.289032,46.234177 317.713654,47.385826 
	C313.960114,48.594849 312.174622,52.626251 313.088409,56.777782 
	C313.771393,59.880829 315.197388,62.830727 316.392944,65.808517 
	C319.364777,73.210655 322.697357,80.626472 319.951691,88.809158 
	C317.813995,95.179970 315.641693,101.612892 312.667969,107.613464 
	C307.195160,118.657021 301.281982,129.493423 295.221710,140.229523 
	C292.692444,144.710205 290.237396,150.418854 286.157593,152.619385 
	C273.085632,159.669998 262.684601,169.748337 251.943436,179.554825 
	C244.761642,186.111664 237.566895,192.654922 230.326843,199.147247 
	C214.636978,213.216751 198.904556,227.238770 183.209503,241.302475 
	C176.210419,247.574051 169.294174,253.938217 162.279541,260.192169 
	C147.418213,273.442017 132.516129,286.646179 117.632477,299.870972 
	C108.655006,307.847870 99.670799,315.817200 90.709862,323.812653 
	C87.022652,327.102570 84.837891,331.383301 86.289238,336.088928 
	C87.194374,339.023621 86.321281,340.357025 84.571716,341.948120 
	C77.253242,348.603577 69.882362,355.201996 62.609913,361.907257 
	C56.578987,367.467743 59.034435,373.708221 63.231915,377.630341 
	C64.462921,378.780548 66.250458,379.335144 67.931213,380.242798 
	C59.594376,387.673309 51.453075,395.009430 43.223907,402.245636 
	C30.147068,413.744568 17.021391,425.188049 3.876107,436.608643 
	C3.100167,437.282806 1.966961,437.545715 0.999999,438.000000 
z"/>
<path fill="#000000" opacity="1.000000" stroke="none" 
	d="
M513.000000,127.000000 
	C513.000000,255.608337 513.000000,384.216675 513.000000,512.912476 
	C342.333344,512.912476 171.666687,512.912476 1.000007,512.909912 
	C1.000000,492.250122 1.000000,471.592926 1.255593,450.136353 
	C2.217755,450.187347 2.800799,451.193726 3.649071,451.864960 
	C22.531181,466.806305 43.823685,471.112183 67.239059,466.384827 
	C80.340523,463.739777 90.888458,456.215027 101.569778,448.914124 
	C131.196854,428.663605 160.778915,408.347015 190.451920,388.164062 
	C191.809296,387.240814 194.055847,386.698761 195.590424,387.104797 
	C211.600311,391.341034 227.784271,394.130493 244.406097,394.063629 
	C245.888885,394.057648 248.171234,394.506317 248.728241,395.501617 
	C251.873734,401.122040 254.605545,406.973969 257.604584,413.000763 
	C252.888184,413.000763 248.413818,412.972565 243.939926,413.007233 
	C236.828049,413.062378 233.017090,416.670715 233.000702,423.306976 
	C232.983307,430.353912 236.691147,433.987244 244.075623,433.990662 
	C284.406433,434.009338 324.737274,434.011139 365.068085,433.988617 
	C372.188660,433.984650 375.982635,430.340851 375.999451,423.690369 
	C376.017273,416.643005 372.316284,413.035217 364.932312,413.008911 
	C355.440582,412.975128 345.948639,413.000732 336.576233,413.000732 
	C331.203461,402.437836 325.941528,392.092865 320.911316,382.203430 
	C329.283661,378.136871 337.118835,374.321136 344.962646,370.523285 
	C362.640808,361.963837 378.054688,350.062592 391.795258,336.342102 
	C401.464203,326.687225 409.705109,315.517731 417.964874,304.558228 
	C427.581818,291.798035 434.346405,277.390137 439.877167,262.438354 
	C446.801086,243.720383 451.223175,224.420517 451.921143,204.440430 
	C452.345642,192.289352 451.927612,180.110641 452.045593,167.945877 
	C452.078644,164.533676 451.984802,160.869095 453.149689,157.771790 
	C455.509369,151.497650 457.755920,145.268021 465.512329,142.689880 
	C481.331421,137.431854 498.196075,135.300186 513.000000,127.000000 
z"/>
<path fill="#4BB7FF" opacity="1.000000" stroke="none" 
	d="
M513.000000,126.536819 
	C498.196075,135.300186 481.331421,137.431854 465.512329,142.689880 
	C457.755920,145.268021 455.509369,151.497650 453.149689,157.771790 
	C451.984802,160.869095 452.078644,164.533676 452.045593,167.945877 
	C451.927612,180.110641 452.345642,192.289352 451.921143,204.440430 
	C451.223175,224.420517 446.801086,243.720383 439.877167,262.438354 
	C434.346405,277.390137 427.581818,291.798035 417.964874,304.558228 
	C409.705109,315.517731 401.464203,326.687225 391.795258,336.342102 
	C378.054688,350.062592 362.640808,361.963837 344.962646,370.523285 
	C337.118835,374.321136 329.283661,378.136871 320.911316,382.203430 
	C325.941528,392.092865 331.203461,402.437836 336.576233,413.000732 
	C345.948639,413.000732 355.440582,412.975128 364.932312,413.008911 
	C372.316284,413.035217 376.017273,416.643005 375.999451,423.690369 
	C375.982635,430.340851 372.188660,433.984650 365.068085,433.988617 
	C324.737274,434.011139 284.406433,434.009338 244.075623,433.990662 
	C236.691147,433.987244 232.983307,430.353912 233.000702,423.306976 
	C233.017090,416.670715 236.828049,413.062378 243.939926,413.007233 
	C248.413818,412.972565 252.888184,413.000763 257.604584,413.000763 
	C254.605545,406.973969 251.873734,401.122040 248.728241,395.501617 
	C248.171234,394.506317 245.888885,394.057648 244.406097,394.063629 
	C227.784271,394.130493 211.600311,391.341034 195.590424,387.104797 
	C194.055847,386.698761 191.809296,387.240814 190.451920,388.164062 
	C160.778915,408.347015 131.196854,428.663605 101.569778,448.914124 
	C90.888458,456.215027 80.340523,463.739777 67.239059,466.384827 
	C43.823685,471.112183 22.531181,466.806305 3.649071,451.864960 
	C2.800799,451.193726 2.217755,450.187347 1.255593,449.668518 
	C1.000000,446.307098 1.000000,442.614166 0.999999,438.460632 
	C1.966961,437.545715 3.100167,437.282806 3.876107,436.608643 
	C17.021391,425.188049 30.147068,413.744568 43.223907,402.245636 
	C51.453075,395.009430 59.594376,387.673309 67.931213,380.242798 
	C66.250458,379.335144 64.462921,378.780548 63.231915,377.630341 
	C59.034435,373.708221 56.578987,367.467743 62.609913,361.907257 
	C69.882362,355.201996 77.253242,348.603577 84.571716,341.948120 
	C86.321281,340.357025 87.194374,339.023621 86.289238,336.088928 
	C84.837891,331.383301 87.022652,327.102570 90.709862,323.812653 
	C99.670799,315.817200 108.655006,307.847870 117.632477,299.870972 
	C132.516129,286.646179 147.418213,273.442017 162.279541,260.192169 
	C169.294174,253.938217 176.210419,247.574051 183.209503,241.302475 
	C198.904556,227.238770 214.636978,213.216751 230.326843,199.147247 
	C237.566895,192.654922 244.761642,186.111664 251.943436,179.554825 
	C262.684601,169.748337 273.085632,159.669998 286.157593,152.619385 
	C290.237396,150.418854 292.692444,144.710205 295.221710,140.229523 
	C301.281982,129.493423 307.195160,118.657021 312.667969,107.613464 
	C315.641693,101.612892 317.813995,95.179970 319.951691,88.809158 
	C322.697357,80.626472 319.364777,73.210655 316.392944,65.808517 
	C315.197388,62.830727 313.771393,59.880829 313.088409,56.777782 
	C312.174622,52.626251 313.960114,48.594849 317.713654,47.385826 
	C321.289032,46.234177 326.318604,45.759823 329.352356,47.438801 
	C341.464630,54.142052 353.517090,56.029530 366.738373,51.154110 
	C376.895782,47.408527 387.551025,45.497608 398.444427,46.037888 
	C416.221558,46.919579 432.668854,52.134354 446.595428,63.355534 
	C453.036499,68.545387 458.156067,75.351326 464.092407,81.203842 
	C466.366058,83.445442 469.196564,85.144707 471.859131,86.965591 
	C485.393158,96.221252 498.955292,105.435753 512.753784,114.332336 
	C513.000000,118.024544 513.000000,122.049088 513.000000,126.536819 
M215.368683,240.253357 
	C186.431015,266.117249 157.493347,291.981140 128.555664,317.845032 
	C128.750443,318.228333 128.945206,318.611664 129.139984,318.994965 
	C132.193466,318.663849 135.244308,318.305542 138.300903,318.006256 
	C151.392639,316.724335 164.545410,314.233948 174.783997,305.893799 
	C192.397949,291.545868 208.958771,275.905090 226.854141,260.770233 
	C237.129913,261.714752 245.753296,257.108490 254.180862,251.983292 
	C255.305069,255.050735 256.213745,257.530121 256.528412,260.335602 
	C238.920532,276.507660 221.312637,292.679749 203.704758,308.851807 
	C204.006287,309.399017 204.307800,309.946198 204.609329,310.493408 
	C213.442612,308.314880 222.434158,306.628143 231.073807,303.847931 
	C245.743744,299.127167 256.821686,288.831482 267.779816,278.554260 
	C273.587891,273.107056 279.227875,267.480713 285.529968,261.615448 
	C288.097198,259.673187 290.664429,257.730957 293.964264,255.234467 
	C295.248138,263.469025 299.441711,267.957367 306.605591,269.679230 
	C295.710052,279.820190 284.814514,289.961151 273.048889,300.911926 
	C288.523590,298.350189 302.403748,294.414551 315.209351,287.703857 
	C324.856384,282.648407 333.798248,276.247284 343.726166,270.195892 
	C361.374329,258.353088 372.954926,242.565994 372.570435,220.656845 
	C372.174316,198.082672 361.459381,180.851089 340.685272,171.582336 
	C320.104980,162.400040 300.175507,165.055740 282.743835,179.762909 
	C269.384033,191.034637 256.603668,202.995331 243.620438,214.710358 
	C234.354874,223.070831 225.180267,231.532089 215.368683,240.253357 
M374.139984,171.692490 
	C401.999847,203.961304 397.259979,250.372284 367.516785,276.818573 
	C339.030609,302.147217 305.894989,317.156097 268.123505,321.910065 
	C221.716858,327.750854 175.351959,334.009888 128.845215,338.914154 
	C115.597038,340.311188 108.730026,348.804993 100.295883,356.560211 
	C102.027748,357.101715 103.601067,357.179016 105.164909,357.089966 
	C123.786446,356.029510 142.400864,354.817200 161.032333,353.983276 
	C164.360107,353.834320 168.053970,354.589264 171.076248,356.001923 
	C206.058334,372.353363 242.487106,377.410065 280.634583,371.207855 
	C351.209808,359.733429 411.391296,303.281891 427.093323,233.673309 
	C431.491943,214.173691 432.996185,194.515656 431.326569,174.626190 
	C429.935486,158.054688 433.758911,143.261749 445.284637,130.809692 
	C446.393677,129.611496 447.209717,127.615623 447.200928,125.995285 
	C447.146576,116.001587 446.711395,106.010201 446.632782,96.016243 
	C446.603821,92.333488 445.354675,89.610092 442.034698,87.082558 
	C426.897369,70.481270 407.814331,64.308983 386.078796,67.677040 
	C372.048431,69.851135 358.661469,76.045120 343.933716,74.199348 
	C343.121796,74.097580 341.266571,76.620949 341.108032,78.056168 
	C340.598755,82.666489 340.982483,87.378075 340.436859,91.981262 
	C338.844727,105.413834 331.541107,116.577515 325.542023,128.240768 
	C322.679993,133.805054 319.714996,139.316360 316.234039,145.918686 
	C321.611328,146.475937 326.009003,146.719330 330.333374,147.417160 
	C347.587372,150.201492 361.809937,158.648087 374.139984,171.692490 
M86.821259,405.821899 
	C103.110954,410.905731 119.065498,410.874664 133.927307,401.580170 
	C143.653702,395.497345 152.924332,388.684631 162.382080,382.174133 
	C164.487732,380.724640 166.522095,379.171539 168.589264,377.666138 
	C168.538574,377.166504 168.487885,376.666901 168.437195,376.167267 
	C165.162827,375.443115 161.865067,374.011292 158.618179,374.118652 
	C145.332062,374.557922 132.067505,375.881012 118.783295,376.074249 
	C107.804100,376.234009 98.535088,379.064941 91.012947,387.531860 
	C86.794891,392.279694 81.587715,396.148804 76.005882,401.148590 
	C80.108513,402.947968 83.091660,404.256348 86.821259,405.821899 
M92.584892,428.055420 
	C82.425156,424.069672 72.297791,419.996490 62.065048,416.207916 
	C60.775406,415.730438 58.507812,416.242249 57.412548,417.156921 
	C49.633980,423.652924 42.036610,430.366180 34.395844,437.026672 
	C32.367458,438.794861 30.389067,440.620422 27.858900,442.895020 
	C38.782455,447.678375 49.039017,449.210083 59.836182,447.009216 
	C72.909561,444.344330 83.527954,437.357666 92.584892,428.055420 
M306.944916,401.621094 
	C304.645142,397.189117 302.345337,392.757172 300.109283,388.448029 
	C290.587860,390.154694 281.405060,391.800629 271.808228,393.520813 
	C275.063110,400.069244 278.270782,406.522797 281.490601,413.000702 
	C286.695557,413.000702 291.670227,413.000702 296.644928,413.000702 
	C301.695404,413.000702 306.745880,413.000702 312.504272,413.000702 
	C310.422668,408.941193 308.739624,405.658966 306.944916,401.621094 
z"/>
<path fill="#FEFFFF" opacity="1.000000" stroke="none" 
	d="
M442.239136,87.715546 
	C445.354675,89.610092 446.603821,92.333488 446.632782,96.016243 
	C446.711395,106.010201 447.146576,116.001587 447.200928,125.995285 
	C447.209717,127.615623 446.393677,129.611496 445.284637,130.809692 
	C433.758911,143.261749 429.935486,158.054688 431.326569,174.626190 
	C432.996185,194.515656 431.491943,214.173691 427.093323,233.673309 
	C411.391296,303.281891 351.209808,359.733429 280.634583,371.207855 
	C242.487106,377.410065 206.058334,372.353363 171.076248,356.001923 
	C168.053970,354.589264 164.360107,353.834320 161.032333,353.983276 
	C142.400864,354.817200 123.786446,356.029510 105.164909,357.089966 
	C103.601067,357.179016 102.027748,357.101715 100.295883,356.560211 
	C108.730026,348.804993 115.597038,340.311188 128.845215,338.914154 
	C175.351959,334.009888 221.716858,327.750854 268.123505,321.910065 
	C305.894989,317.156097 339.030609,302.147217 367.516785,276.818573 
	C397.259979,250.372284 401.999847,203.961304 374.019714,170.915634 
	C373.482635,156.448196 373.844086,142.857346 378.889740,129.839523 
	C387.437103,107.787292 401.868988,92.699898 426.447266,89.612465 
	C431.707642,88.951668 436.975006,88.346397 442.239136,87.715546 
M413.758606,101.822182 
	C405.422760,103.918121 402.217377,111.924225 407.296112,117.963501 
	C410.148041,121.354797 414.981110,122.458939 419.034576,120.645180 
	C423.014160,118.864464 425.512665,114.271385 424.793732,110.057877 
	C423.953918,105.135590 420.564911,102.383934 413.758606,101.822182 
z"/>
<path fill="#CBF5FD" opacity="1.000000" stroke="none" 
	d="
M306.867310,269.090942 
	C299.441711,267.957367 295.248138,263.469025 293.964264,255.234467 
	C290.664429,257.730957 288.097198,259.673187 284.841278,261.776642 
	C282.413422,262.434143 280.660431,262.886871 278.937500,263.434265 
	C271.089447,265.927673 263.613953,266.123566 257.122437,260.009521 
	C256.213745,257.530121 255.305069,255.050735 254.180862,251.983292 
	C245.753296,257.108490 237.129913,261.714752 226.141388,260.596069 
	C218.477570,257.807465 215.370361,252.793381 215.948792,245.400986 
	C216.090179,243.594086 215.966751,241.766464 215.965073,239.948380 
	C225.180267,231.532089 234.354874,223.070831 243.620438,214.710358 
	C256.603668,202.995331 269.384033,191.034637 282.743835,179.762909 
	C300.175507,165.055740 320.104980,162.400040 340.685272,171.582336 
	C361.459381,180.851089 372.174316,198.082672 372.570435,220.656845 
	C372.954926,242.565994 361.374329,258.353088 343.237762,269.975372 
	C340.632996,265.825073 338.516663,261.895325 336.217468,257.626007 
	C327.659912,263.541626 318.510071,269.593719 306.867310,269.090942 
z"/>
<path fill="#99EBFB" opacity="1.000000" stroke="none" 
	d="
M442.136902,87.399048 
	C436.975006,88.346397 431.707642,88.951668 426.447266,89.612465 
	C401.868988,92.699898 387.437103,107.787292 378.889740,129.839523 
	C373.844086,142.857346 373.482635,156.448196 373.868530,170.612091 
	C361.809937,158.648087 347.587372,150.201492 330.333374,147.417160 
	C326.009003,146.719330 321.611328,146.475937 316.234039,145.918686 
	C319.714996,139.316360 322.679993,133.805054 325.542023,128.240768 
	C331.541107,116.577515 338.844727,105.413834 340.436859,91.981262 
	C340.982483,87.378075 340.598755,82.666489 341.108032,78.056168 
	C341.266571,76.620949 343.121796,74.097580 343.933716,74.199348 
	C358.661469,76.045120 372.048431,69.851135 386.078796,67.677040 
	C407.814331,64.308983 426.897369,70.481270 442.136902,87.399048 
z"/>
<path fill="#98EAFB" opacity="1.000000" stroke="none" 
	d="
M215.666870,240.100861 
	C215.966751,241.766464 216.090179,243.594086 215.948792,245.400986 
	C215.370361,252.793381 218.477570,257.807465 225.695129,260.614380 
	C208.958771,275.905090 192.397949,291.545868 174.783997,305.893799 
	C164.545410,314.233948 151.392639,316.724335 138.300903,318.006256 
	C135.244308,318.305542 132.193466,318.663849 129.139984,318.994965 
	C128.945206,318.611664 128.750443,318.228333 128.555664,317.845032 
	C157.493347,291.981140 186.431015,266.117249 215.666870,240.100861 
z"/>
<path fill="#98EAFB" opacity="1.000000" stroke="none" 
	d="
M86.448029,405.693298 
	C83.091660,404.256348 80.108513,402.947968 76.005882,401.148590 
	C81.587715,396.148804 86.794891,392.279694 91.012947,387.531860 
	C98.535088,379.064941 107.804100,376.234009 118.783295,376.074249 
	C132.067505,375.881012 145.332062,374.557922 158.618179,374.118652 
	C161.865067,374.011292 165.162827,375.443115 168.437195,376.167267 
	C168.487885,376.666901 168.538574,377.166504 168.589264,377.666138 
	C166.522095,379.171539 164.487732,380.724640 162.382080,382.174133 
	C152.924332,388.684631 143.653702,395.497345 133.927307,401.580170 
	C119.065498,410.874664 103.110954,410.905731 86.448029,405.693298 
z"/>
<path fill="#98EAFB" opacity="1.000000" stroke="none" 
	d="
M256.825439,260.172546 
	C263.613953,266.123566 271.089447,265.927673 278.937500,263.434265 
	C280.660431,262.886871 282.413422,262.434143 284.548157,261.936523 
	C279.227875,267.480713 273.587891,273.107056 267.779816,278.554260 
	C256.821686,288.831482 245.743744,299.127167 231.073807,303.847931 
	C222.434158,306.628143 213.442612,308.314880 204.609329,310.493408 
	C204.307800,309.946198 204.006287,309.399017 203.704758,308.851807 
	C221.312637,292.679749 238.920532,276.507660 256.825439,260.172546 
z"/>
<path fill="#98EAFB" opacity="1.000000" stroke="none" 
	d="
M92.842987,428.256653 
	C83.527954,437.357666 72.909561,444.344330 59.836182,447.009216 
	C49.039017,449.210083 38.782455,447.678375 27.858900,442.895020 
	C30.389067,440.620422 32.367458,438.794861 34.395844,437.026672 
	C42.036610,430.366180 49.633980,423.652924 57.412548,417.156921 
	C58.507812,416.242249 60.775406,415.730438 62.065048,416.207916 
	C72.297791,419.996490 82.425156,424.069672 92.842987,428.256653 
z"/>
<path fill="#98EAFB" opacity="1.000000" stroke="none" 
	d="
M306.736450,269.385071 
	C318.510071,269.593719 327.659912,263.541626 336.217468,257.626007 
	C338.516663,261.895325 340.632996,265.825073 342.901672,270.100006 
	C333.798248,276.247284 324.856384,282.648407 315.209351,287.703857 
	C302.403748,294.414551 288.523590,298.350189 273.048889,300.911926 
	C284.814514,289.961151 295.710052,279.820190 306.736450,269.385071 
z"/>
<path fill="#000000" opacity="1.000000" stroke="none" 
	d="
M307.000763,401.998932 
	C308.739624,405.658966 310.422668,408.941193 312.504272,413.000702 
	C306.745880,413.000702 301.695404,413.000702 296.644928,413.000702 
	C291.670227,413.000702 286.695557,413.000702 281.490601,413.000702 
	C278.270782,406.522797 275.063110,400.069244 271.808228,393.520813 
	C281.405060,391.800629 290.587860,390.154694 300.109283,388.448029 
	C302.345337,392.757172 304.645142,397.189117 307.000763,401.998932 
z"/>
<path fill="#4EB9FF" opacity="1.000000" stroke="none" 
	d="
M414.170105,101.794235 
	C420.564911,102.383934 423.953918,105.135590 424.793732,110.057877 
	C425.512665,114.271385 423.014160,118.864464 419.034576,120.645180 
	C414.981110,122.458939 410.148041,121.354797 407.296112,117.963501 
	C402.217377,111.924225 405.422760,103.918121 414.170105,101.794235 
z"/>
</svg>